<svg xmlns="http://www.w3.org/2000/svg" viewBox="0 0 512 512">
  <title>Летний рюкзак</title>
  <desc>Лёгкий летний рюкзак с блокнотом, солнечной меткой и картой дороги.</desc>
  <defs><linearGradient id="bg" x2="1" y2="1"><stop stop-color="#99F6E4"/><stop offset="1" stop-color="#FDE68A"/></linearGradient></defs>
  <rect width="512" height="512" rx="118" fill="url(#bg)"/>
  <circle cx="396" cy="108" r="54" fill="#F59E0B"/>
  <path d="M154 176c0-62 42-104 102-104s102 42 102 104" fill="none" stroke="#17313B" stroke-width="22" stroke-linecap="round"/>
  <rect x="104" y="146" width="304" height="312" rx="82" fill="#14B8A6" stroke="#17313B" stroke-width="18"/>
  <rect x="152" y="270" width="208" height="144" rx="38" fill="#FFFBEB" stroke="#17313B" stroke-width="15"/>
  <path d="M152 212h208M190 310h132M190 350h96" stroke="#38BDF8" stroke-width="12" stroke-linecap="round"/>
  <path d="m308 168 36 24-34 30-34-28z" fill="#F59E0B" stroke="#17313B" stroke-width="10"/>
  <path d="M110 416C60 366 61 283 96 238M402 416c50-50 49-133 14-178" fill="none" stroke="#17313B" stroke-width="18" stroke-linecap="round"/>
  <path d="M188 402c38-60 98-24 132-74" fill="none" stroke="#14B8A6" stroke-width="14" stroke-linecap="round"/><circle cx="188" cy="402" r="13" fill="#F59E0B"/><circle cx="320" cy="328" r="13" fill="#38BDF8"/>
</svg>
