<svg xmlns="http://www.w3.org/2000/svg" viewBox="0 0 512 512" role="img">
  <title>Не тает</title>
  <desc>Снежное существо сохраняет форму.</desc>
  <defs>
    <linearGradient id="bg-9" x1="0" y1="0" x2="1" y2="1">
      <stop stop-color="#BAE6FD"/>
      <stop offset="1" stop-color="#F8FAFC"/>
    </linearGradient>
  </defs>
  <rect width="512" height="512" rx="118" fill="url(#bg-9)"/>
  <circle cx="80" cy="78" r="58" fill="#fff" opacity=".17"/>
  <circle cx="438" cy="420" r="94" fill="#fff" opacity=".1"/>
  <path d="M136 387q-47-39-14-91-25-62 40-93 22-79 102-48 69-45 111 25 73 14 62 88 50 63-9 111-29 72-102 46-63 44-112-10-50 12-78-28z" fill="#F8FAFC" stroke="#0EA5E9" stroke-width="18"/>
    <circle cx="203" cy="287" r="27" fill="#164E63"/><circle cx="317" cy="287" r="27" fill="#164E63"/>
    <circle cx="194" cy="278" r="9" fill="#fff"/><circle cx="308" cy="278" r="9" fill="#fff"/>
    <path d="M212 359q48 23 96 0" fill="none" stroke="#0E7490" stroke-width="13" stroke-linecap="round"/>
    <path d="M256 82v74M219 99l37 29 37-29" fill="none" stroke="#E0F2FE" stroke-width="14" stroke-linecap="round" stroke-linejoin="round"/>
</svg>
