<svg xmlns="http://www.w3.org/2000/svg" viewBox="0 0 512 512" role="img">
  <title>Вне расписания</title>
  <desc>Кот с расписанием, которое уже не актуально.</desc>
  <defs>
    <linearGradient id="bg-4" x1="0" y1="0" x2="1" y2="1">
      <stop stop-color="#FDBA74"/>
      <stop offset="1" stop-color="#64748B"/>
    </linearGradient>
  </defs>
  <rect width="512" height="512" rx="118" fill="url(#bg-4)"/>
  <circle cx="80" cy="78" r="58" fill="#fff" opacity=".17"/>
  <circle cx="438" cy="420" r="94" fill="#fff" opacity=".1"/>
  <path d="M119 244 142 105l108 76 120-76 23 139z" fill="#475569" stroke="#172033" stroke-width="18" stroke-linejoin="round"/>
    <rect x="108" y="182" width="296" height="258" rx="122" fill="#64748B" stroke="#172033" stroke-width="18"/>
    <circle cx="195" cy="282" r="27" fill="#0F172A"/><circle cx="317" cy="282" r="27" fill="#0F172A"/>
    <circle cx="187" cy="273" r="8" fill="#fff"/><circle cx="309" cy="273" r="8" fill="#fff"/>
    <path d="m238 331 18 17 18-17" fill="#FB7185" stroke="#172033" stroke-width="9" stroke-linejoin="round"/><path d="M256 348v25m0 0q-28 23-53 0m53 0q28 23 53 0" fill="none" stroke="#172033" stroke-width="10" stroke-linecap="round"/>
    <g stroke="#172033" stroke-width="8"><path d="M170 340 72 320M170 366 68 374M342 340l98-20M342 366l102 8"/></g>
    <rect x="319" y="88" width="121" height="92" rx="14" fill="#FFF7ED" stroke="#9A3412" stroke-width="11"/><path d="M340 118h78M340 145h54" stroke="#F97316" stroke-width="11" stroke-linecap="round"/>
</svg>
