<svg xmlns="http://www.w3.org/2000/svg" viewBox="0 0 512 512" role="img" aria-labelledby="title desc">
  <title>Фрактальный разведчик</title>
  <desc>Разведчик с ветвящейся антенной и рекурсивным знаком.</desc>
  <defs>
    <linearGradient id="bg" x1="62" y1="48" x2="446" y2="462" gradientUnits="userSpaceOnUse"><stop stop-color="#A855F7"/><stop offset=".5" stop-color="#22C55E"/><stop offset="1" stop-color="#19142D"/></linearGradient>
    <linearGradient id="glass"><stop stop-color="#F5F3FF"/><stop offset="1" stop-color="#06B6D4"/></linearGradient>
  </defs>
  <circle cx="256" cy="256" r="236" fill="url(#bg)"/>
  <path d="M256 111V65m0 25-35-24m35 24 35-24m-35 0-18-30m18 30 18-30" fill="none" stroke="#F5F3FF" stroke-width="9" stroke-linecap="round"/>
  <path d="M121 440c20-86 65-132 135-132s115 46 135 132" fill="#19142D" stroke="#22C55E" stroke-width="12"/>
  <path d="M151 214c0-70 45-117 105-117s105 47 105 117v64c0 63-44 103-105 103s-105-40-105-103z" fill="#23204A" stroke="#F5F3FF" stroke-width="12"/>
  <path d="M171 177h170v114H171z" fill="url(#glass)"/>
  <path d="M256 271v-69m0 30-34-25m34 25 34-25m-34 0-17-26m17 26 17-26" fill="none" stroke="#A855F7" stroke-width="10" stroke-linecap="round"/>
  <path d="M219 331h74" stroke="#06B6D4" stroke-width="11" stroke-linecap="round"/>
  <path d="M99 320h48m218 0h48" stroke="#F5F3FF" stroke-width="8" stroke-dasharray="8 9"/>
</svg>
