<svg xmlns="http://www.w3.org/2000/svg" viewBox="0 0 512 512" role="img" aria-labelledby="title desc">
  <title>Алгоритмический спутник</title>
  <desc>Учебный спутник с блок-схемой вокруг вычислительного ядра.</desc>
  <defs>
    <linearGradient id="bg" x1="58" y1="52" x2="453" y2="458" gradientUnits="userSpaceOnUse"><stop stop-color="#0891B2"/><stop offset=".5" stop-color="#4F46E5"/><stop offset="1" stop-color="#0B2029"/></linearGradient>
    <linearGradient id="core"><stop stop-color="#ECFEFF"/><stop offset="1" stop-color="#A3E635"/></linearGradient>
  </defs>
  <circle cx="256" cy="256" r="236" fill="url(#bg)"/>
  <path d="M103 134h79v54h-79zM330 324h79v54h-79z" fill="#0B2029" stroke="#A3E635" stroke-width="10"/>
  <path d="M182 161h44v56m104 134h-44v-56" fill="none" stroke="#ECFEFF" stroke-width="9"/>
  <path d="M125 436c20-80 62-119 131-119s111 39 131 119" fill="#0B2029" stroke="#0891B2" stroke-width="12"/>
  <rect x="151" y="108" width="210" height="265" rx="85" fill="#152B4F" stroke="#ECFEFF" stroke-width="12"/>
  <rect x="177" y="161" width="158" height="106" rx="21" fill="url(#core)"/>
  <circle cx="256" cy="214" r="28" fill="#4F46E5"/>
  <path d="M194 214h34m56 0h34M256 186v-25M256 267v-25" stroke="#0891B2" stroke-width="10"/>
  <path d="m228 332 28-28 28 28-28 28z" fill="#A3E635"/>
  <path d="M85 282h63M364 230h63" stroke="#ECFEFF" stroke-width="8" stroke-dasharray="10 10"/>
</svg>
